<?xml version="1.0" encoding="UTF-8" standalone="no"?>
<!DOCTYPE svg PUBLIC "-//W3C//DTD SVG 1.1//EN"
 "http://www.w3.org/Graphics/SVG/1.1/DTD/svg11.dtd">
<!-- Generated by graphviz version 2.43.0 (0)
 -->
<!-- Title: dependency&#45;cruiser output Pages: 1 -->
<svg width="282pt" height="170pt"
 viewBox="0.00 0.00 282.00 170.00" xmlns="http://www.w3.org/2000/svg" xmlns:xlink="http://www.w3.org/1999/xlink">
<g id="graph0" class="graph" transform="scale(1 1) rotate(0) translate(4 166)">
<title>dependency&#45;cruiser output</title>
<polygon fill="white" stroke="transparent" points="-4,4 -4,-166 278,-166 278,4 -4,4"/>
<g id="clust1" class="cluster">
<title>cluster_src</title>
<path fill="#ffffff" stroke="black" stroke-width="2" d="M20,-8C20,-8 254,-8 254,-8 260,-8 266,-14 266,-20 266,-20 266,-142 266,-142 266,-148 260,-154 254,-154 254,-154 20,-154 20,-154 14,-154 8,-148 8,-142 8,-142 8,-20 8,-20 8,-14 14,-8 20,-8"/>
<text text-anchor="middle" x="137" y="-142.8" font-family="Helvetica,sans-Serif" font-weight="bold" font-size="9.00">src</text>
</g>
<g id="clust2" class="cluster">
<title>cluster_src/client</title>
<path fill="#ffffff" stroke="black" stroke-width="2" d="M28,-16C28,-16 246,-16 246,-16 252,-16 258,-22 258,-28 258,-28 258,-116 258,-116 258,-122 252,-128 246,-128 246,-128 28,-128 28,-128 22,-128 16,-122 16,-116 16,-116 16,-28 16,-28 16,-22 22,-16 28,-16"/>
<text text-anchor="middle" x="137" y="-116.8" font-family="Helvetica,sans-Serif" font-weight="bold" font-size="9.00">client</text>
</g>
<g id="clust3" class="cluster">
<title>cluster_src/client/helpers</title>
<path fill="#ffffff" stroke="black" stroke-width="2" d="M36,-50C36,-50 82,-50 82,-50 88,-50 94,-56 94,-62 94,-62 94,-90 94,-90 94,-96 88,-102 82,-102 82,-102 36,-102 36,-102 30,-102 24,-96 24,-90 24,-90 24,-62 24,-62 24,-56 30,-50 36,-50"/>
<text text-anchor="middle" x="59" y="-90.8" font-family="Helvetica,sans-Serif" font-weight="bold" font-size="9.00">helpers</text>
</g>
<g id="clust4" class="cluster">
<title>cluster_src/client/models</title>
<path fill="#ffffff" stroke="black" stroke-width="2" d="M114,-24C114,-24 238,-24 238,-24 244,-24 250,-30 250,-36 250,-36 250,-64 250,-64 250,-70 244,-76 238,-76 238,-76 114,-76 114,-76 108,-76 102,-70 102,-64 102,-64 102,-36 102,-36 102,-30 108,-24 114,-24"/>
<text text-anchor="middle" x="176" y="-64.8" font-family="Helvetica,sans-Serif" font-weight="bold" font-size="9.00">models</text>
</g>
<!-- src/client/helpers/calc.ts -->
<g id="node1" class="node">
<title>src/client/helpers/calc.ts</title>
<g id="a_node1"><a xlink:href="src/client/helpers/calc.ts" xlink:title="no&#45;orphans">
<path fill="#ccffcc" stroke="blue" d="M80,-76C80,-76 38,-76 38,-76 35,-76 32,-73 32,-70 32,-70 32,-64 32,-64 32,-61 35,-58 38,-58 38,-58 80,-58 80,-58 83,-58 86,-61 86,-64 86,-64 86,-70 86,-70 86,-73 83,-76 80,-76"/>
<text text-anchor="middle" x="59" y="-64.8" font-family="Helvetica,sans-Serif" font-size="9.00" fill="blue">calc.ts</text>
</a>
</g>
</g>
<!-- src/client/index.ts -->
<g id="node2" class="node">
<title>src/client/index.ts</title>
<g id="a_node2"><a xlink:href="src/client/index.ts" xlink:title="index.ts">
<path fill="#ddfeff" stroke="black" d="M80,-42C80,-42 38,-42 38,-42 35,-42 32,-39 32,-36 32,-36 32,-30 32,-30 32,-27 35,-24 38,-24 38,-24 80,-24 80,-24 83,-24 86,-27 86,-30 86,-30 86,-36 86,-36 86,-39 83,-42 80,-42"/>
<text text-anchor="middle" x="59" y="-30.8" font-family="Helvetica,sans-Serif" font-size="9.00">index.ts</text>
</a>
</g>
</g>
<!-- src/client/models/BookList.ts -->
<g id="node3" class="node">
<title>src/client/models/BookList.ts</title>
<g id="a_node3"><a xlink:href="src/client/models/BookList.ts" xlink:title="BookList.ts">
<path fill="#ddfeff" stroke="black" d="M169,-50C169,-50 116,-50 116,-50 113,-50 110,-47 110,-44 110,-44 110,-38 110,-38 110,-35 113,-32 116,-32 116,-32 169,-32 169,-32 172,-32 175,-35 175,-38 175,-38 175,-44 175,-44 175,-47 172,-50 169,-50"/>
<text text-anchor="middle" x="142.5" y="-38.8" font-family="Helvetica,sans-Serif" font-size="9.00">BookList.ts</text>
</a>
</g>
</g>
<!-- src/client/index.ts&#45;&gt;src/client/models/BookList.ts -->
<g id="edge1" class="edge">
<title>src/client/index.ts&#45;&gt;src/client/models/BookList.ts</title>
<path fill="none" stroke="#000000" stroke-width="2" stroke-opacity="0.200000" d="M86.24,-35.58C91.77,-36.12 97.72,-36.7 103.59,-37.28"/>
<polygon fill="#000000" fill-opacity="0.200000" stroke="#000000" stroke-width="2" stroke-opacity="0.200000" points="103.72,-39.4 109.9,-37.9 104.13,-35.22 103.72,-39.4"/>
</g>
<!-- src/client/models/Book.ts -->
<g id="node4" class="node">
<title>src/client/models/Book.ts</title>
<g id="a_node4"><a xlink:href="src/client/models/Book.ts" xlink:title="Book.ts">
<path fill="#ddfeff" stroke="black" d="M236,-50C236,-50 194,-50 194,-50 191,-50 188,-47 188,-44 188,-44 188,-38 188,-38 188,-35 191,-32 194,-32 194,-32 236,-32 236,-32 239,-32 242,-35 242,-38 242,-38 242,-44 242,-44 242,-47 239,-50 236,-50"/>
<text text-anchor="middle" x="215" y="-38.8" font-family="Helvetica,sans-Serif" font-size="9.00">Book.ts</text>
</a>
</g>
</g>
<!-- src/client/models/BookList.ts&#45;&gt;src/client/models/Book.ts -->
<g id="edge2" class="edge">
<title>src/client/models/BookList.ts&#45;&gt;src/client/models/Book.ts</title>
<path fill="none" stroke="#000000" stroke-width="2" stroke-opacity="0.200000" d="M175.04,-41C177.16,-41 179.31,-41 181.44,-41"/>
<polygon fill="#000000" fill-opacity="0.200000" stroke="#000000" stroke-width="2" stroke-opacity="0.200000" points="181.76,-43.1 187.76,-41 181.76,-38.9 181.76,-43.1"/>
</g>
</g>
</svg>
